<?xml version="1.0" encoding="UTF-8" standalone="no"?>
<svg xmlns="http://www.w3.org/2000/svg" viewBox="0 0 744.09447 1052.362179">
  <path stroke="#000" stroke-linejoin="round" d="m402.0853 193.41923-19.25594-10.9606-25.71822 26.48573 33.11458 6.32986 23.78734-2.26546-22.12087-13.65851 10.19311-5.93102z"/>
  <path stroke="#000" stroke-linejoin="round" d="M409.61956 193.42056c-27.70216-20.60708-62.2125-25.99588-97.5238-31.78517 44.73731-.32065 82.26595.56013 124.19989 16.25871 20.46343 15.27519 44.53117 22.14029 70.60133 16.99096 5.12019 10.23646 9.8399 21.67436 11.75625 33.11226-32.91397-26.75564-60.22121-32.2858-99.94336-15.38904l-20.55504-12.62593 11.46473-6.56179zm-21.72801 69.59423c-40.25775-11.68266-72.50588-10.14944-118.37036 3.39819 26.27628-.08606 40.93863 2.63125 54.39953 15.36058 20.38915-13.86205 38.7759-18.91354 63.97083-18.75877z"/>
  <path stroke="#000" stroke-linejoin="round" d="M342.84537 213.00876c24.66881 5.98363 59.75012 19.57639 50.77854 42.7807 28.16973-14.09109 46.72792-15.3668 72.49476-8.23242 15.96719-1.80183 23.52429-8.40942 32.28283-19.82279-22.60325 12.68975-46.40794 6.55691-60.6011-13.59276-14.16402 26.05415-64.77178-6.76236-94.95503-1.13273z"/>
  <path stroke="#000" stroke-linejoin="round" d="M373.23476 230.56608c-23.97613 6.22446-46.75082 8.8446-71.9284 9.06185 16.91669-3.40375 34.63434-9.21039 44.74286-19.82279 8.66137 5.58938 14.91985 8.77588 27.18554 10.76094zm-49.27379 56.04171c-36.76075-11.69282-78.32727 25.47302-86.25341 41.81386 28.09939-20.12514 46.18676-22.22865 59.06788-2.70619 7.05944-17.44118 12.51696-28.07419 27.18553-39.10767zm1.6991 13.05486c65.3208 3.02062 121.57976 24.73129 139.89224 48.14106 49.84015-8.1179 71.92839 7.55153 95.14937 35.11465-42.09982-62.30019-125.54431-89.48573-235.04161-83.25571zm172.17506 114.4058c42.85498 49.65137 48.89621 89.67451 28.31827 147.25499 31.33888-62.86655 55.31501-19.82279 53.23833 16.99095 27.18554-85.89874-66.8311-160.47017-81.5566-164.24594zm-99.6803 49.27378c30.01736 31.15009 44.74286 66.26475 44.1765 115.53853 16.2358-51.16167-7.74033-113.65064-55.50381-162.54685 6.41881 18.31248 16.80217 33.79313 11.32731 47.00832zm-5.66365-7.36275c-49.84015-67.0199-57.2029 13.21519-149.52045-2.26546 87.97542-19.44521 117.6152-56.44775 80.42388-83.82207 43.42134 13.97034 64.75444 50.02894 69.09657 86.08753zm-27.18554 236.74071c-62.48898-6.04123-95.52695-89.67451-71.9284-130.26402-30.39494 19.82279-18.87884 61.73382-14.72549 76.45932-27.94069-13.40398-38.89042-35.86981-41.34467-63.99929-18.50127 90.24088 79.10235 144.23437 127.99856 117.80399z"/>
  <path stroke="#000" stroke-linejoin="round" d="M475.18052 352.90099c15.85823 7.36275 29.451 18.69006 47.57469 22.08826 82.68934 18.12369 125.16674 100.24666 74.76022 151.21954 22.08825-27.56311 18.12369-96.4709-93.45028-121.76855-6.79638-17.17975-14.15913-33.79313-28.88463-51.53925zm-146.68863 56.63654c-86.84268-33.79313-173.119 58.14684-194.26331 99.11393 25.29765-29.07342 60.22352-54.74865 97.98121-56.63653 12.83761-27.7519 40.96709-41.34467 96.2821-42.4774zm251.46621 169.9096c-28.69584 51.16167-71.55082 67.77505-89.48572 48.14105 3.96456 5.66365 12.46004 16.99096 25.48644 18.69006-15.10308 9.06184-31.33888 18.12369-48.70742 20.38915-3.39819 11.13852-9.06185 23.97613-27.7519 32.84919 64.75443-7.36275 121.57976-40.21194 140.4586-120.06945zM377.76568 469.57225c40.40073 25.86402 4.9085 63.62171 14.15913 99.6803 5.09729 36.81375 60.03472 31.1501 45.87559 103.64486 37.5689-67.58626-34.73707-97.79241-24.92007-155.1841 7.55154-35.86981-13.78156-49.65137-35.11465-48.14106zm-46.44196 238.43981c-19.44521 14.34792-35.49223 16.80217-75.32659 12.46004 33.60435 12.27125 69.47415 10.94973 107.60942-9.06185-9.62821-3.39819-17.55733-6.23002-32.28283-3.39819z"/>
  <path stroke="#000" stroke-linejoin="round" d="M218.05065 461.64314c18.50127 6.4188 30.20616 5.47486 47.00833 3.96455-6.79639 25.67523 37.38011 35.49223 74.76022 31.1501 29.63979 2.07667 38.32405 17.74612 38.51284 32.28283-19.25642-34.92587-65.13201-14.34793-94.01664 25.48643 7.55154-18.31248 12.27125-37.75769 33.41555-48.14105-36.43617.94394-72.30597-4.34213-99.6803-44.74286zm86.08754-75.32659c-41.34467-25.29765-82.68934 22.46582-109.87488 50.40651 19.25642-59.46836 52.10561-79.29114 99.6803-107.60941-1.32152 15.48065-2.07667 30.96131 13.0264 46.44196 48.32984 3.58698 10.57216 42.85498-2.83182 10.76094z"/>
  <path stroke="#000" stroke-linejoin="round" d="M214.0861 398.21022c-45.8756 29.26221-74.76023 80.61266-100.81303 134.22858 14.91429-63.05534 45.6868-128.37614 78.72478-165.37867-8.68427 29.26221 2.45425 34.73707 22.08825 31.15009zm91.18482-41.34467c30.9613 1.6991 40.96709 15.29186 57.20289 30.58373-30.77252-25.67522 40.9671-81.36782 123.46765-2.26546-35.68102-62.48897-77.59205-66.07595-149.52045-78.72478 71.36203 20.01157 57.2029 34.35949 25.48644 24.3537-7.55153 22.8434-24.16492 25.29765-56.63653 26.05281zm90.61845 249.76711c33.41555 23.97613-10.19458 46.25317-22.08825 102.51213-10.57215 47.95226-36.43617 87.97541-77.59205 106.47668 16.99096-2.26546 54.18228-16.80217 79.85751-38.51285-12.08246-2.26545-18.50127-3.96455-22.08825-9.6282l3.3982-3.96456s22.65461 11.32731 23.78734 8.49548c13.40398-8.87306 25.10886-20.01157 31.71646-31.71645-21.71067 2.83182-30.96131-1.6991-34.54829-16.99097l3.3982-5.09729c1.13273 13.21519 16.99095 24.73129 32.84918 12.46004 14.7255-13.21519 19.82279-32.09403 22.65462-49.84015-13.78156 35.49223-43.42134 42.66619-26.61917-19.25642 12.83761-26.2416 16.04702-51.35046-14.7255-54.93744z"/>
  <path stroke="#000" stroke-linejoin="round" d="M67.39748 761.81677c15.10308 15.29186 31.90525 31.15009 65.69838 34.54828-27.56312 10.00579 23.03218 22.27703 46.44195 14.15913l-6.79638 10.19458 6.79638 2.83183 8.49548-13.0264c12.83761 3.96456 25.67523-1.13273 36.81375-5.09729l-7.36275 15.85823h9.62821l8.49548-18.1237c43.23256 1.6991 79.10236-9.62821 111.00761-42.4774-12.27125 30.01736-45.49802 43.61013-67.39748 56.07017 1.51031 3.20941 8.68427 4.71972 16.4246 4.53093-95.90453 19.82279-197.47272 9.62821-228.24524-59.46836z"/>
</svg>